<?xml version="1.0" encoding="UTF-8"?>
<svg version="1.1" xmlns="http://www.w3.org/2000/svg" width="1494" height="2076">
<path d="M0 0 C493.02 0 986.04 0 1494 0 C1494 685.08 1494 1370.16 1494 2076 C1000.98 2076 507.96 2076 0 2076 C0 1390.92 0 705.84 0 0 Z " fill="#000000" transform="translate(0,0)"/>
<path d="M0 0 C482.13 0 964.26 0 1461 0 C1459.03779259 3.92441482 1456.74603775 7.41213959 1454.25 11 C1453.76974365 11.69424072 1453.2894873 12.38848145 1452.79467773 13.10375977 C1451.20023039 15.40515748 1449.60090512 17.70309018 1448 20 C1447.44135254 20.80163574 1446.88270508 21.60327148 1446.30712891 22.42919922 C1437.76590382 34.67411998 1429.16009817 46.87330158 1420.54101562 59.06347656 C1414.67444284 67.36205316 1408.82431275 75.67169514 1403 84 C1394.64961655 95.93910106 1386.26318688 107.85165719 1377.78369141 119.69946289 C1372.99546608 126.39479822 1368.25664941 133.1249188 1363.51464844 139.85302734 C1362.05613079 141.92043614 1360.59499477 143.98596312 1359.1328125 146.05078125 C1353.38326952 154.17394386 1347.6777645 162.32648538 1342 170.5 C1335.84978891 179.35363249 1329.66136061 188.17860153 1323.43115234 196.97607422 C1321.9677723 199.04557619 1320.50870312 201.11805605 1319.05078125 203.19140625 C1313.95586044 210.43326962 1308.82340686 217.64450068 1303.625 224.8125 C1297.79417162 232.85592732 1292.08655127 240.9814369 1286.40234375 249.12890625 C1283.28456858 253.59757074 1280.14645096 258.05149691 1277 262.5 C1272.64878223 268.65422864 1268.31910596 274.82319504 1264 281 C1258.17881568 289.32405468 1252.33145779 297.62918378 1246.46777344 305.92333984 C1243.97679014 309.44767516 1241.48855097 312.97394701 1239 316.5 C1238.00001278 317.91667568 1237.00001278 319.33334236 1236 320.75 C1235.505 321.45125 1235.01 322.1525 1234.5 322.875 C1218.00000001 346.24999998 1218.00000001 346.24999998 1216.50048828 348.37426758 C1215.49880957 349.79333958 1214.4971821 351.21244775 1213.49560547 352.6315918 C1211.02170505 356.13675274 1208.54696634 359.64131515 1206.0703125 363.14453125 C1200.69494856 370.75009937 1195.33744986 378.36776805 1190 386 C1184.17876317 394.32401819 1178.331458 402.62918349 1172.46777344 410.92333984 C1169.97679014 414.44767516 1167.48855097 417.97394701 1165 421.5 C1164.00001278 422.91667568 1163.00001278 424.33334236 1162 425.75 C1161.505 426.45125 1161.01 427.1525 1160.5 427.875 C1155.99999999 434.25000001 1155.99999999 434.25000001 1154.50048828 436.37426758 C1153.49880957 437.79333958 1152.4971821 439.21244775 1151.49560547 440.6315918 C1149.02170505 444.13675274 1146.54696634 447.64131515 1144.0703125 451.14453125 C1138.69494856 458.75009937 1133.33744986 466.36776805 1128 474 C1122.17876317 482.32401819 1116.331458 490.62918349 1110.46777344 498.92333984 C1107.97679014 502.44767516 1105.48855097 505.97394701 1103 509.5 C1102.00001278 510.91667568 1101.00001278 512.33334236 1100 513.75 C1099.505 514.45125 1099.01 515.1525 1098.5 515.875 C1094.00000001 522.24999998 1094.00000001 522.24999998 1092.50048828 524.37426758 C1091.49880957 525.79333958 1090.4971821 527.21244775 1089.49560547 528.6315918 C1087.02170505 532.13675274 1084.54696634 535.64131515 1082.0703125 539.14453125 C1076.69494856 546.75009937 1071.33744986 554.36776805 1066 562 C1060.17876317 570.32401819 1054.331458 578.62918349 1048.46777344 586.92333984 C1045.97679014 590.44767516 1043.48855097 593.97394701 1041 597.5 C1040.00001278 598.91667568 1039.00001278 600.33334236 1038 601.75 C1037.505 602.45125 1037.01 603.1525 1036.5 603.875 C1032.00000001 610.24999999 1032.00000001 610.24999999 1030.50048828 612.37426758 C1029.49880957 613.79333958 1028.4971821 615.21244775 1027.49560547 616.6315918 C1025.02170505 620.13675274 1022.54696634 623.64131515 1020.0703125 627.14453125 C1014.69494856 634.75009937 1009.33744986 642.36776805 1004 650 C998.17876317 658.32401819 992.331458 666.62918349 986.46777344 674.92333984 C983.97679014 678.44767516 981.48855097 681.97394701 979 685.5 C978.00001278 686.91667568 977.00001278 688.33334236 976 689.75 C975.505 690.45125 975.01 691.1525 974.5 691.875 C958 715.25 958 715.25 956.50048828 717.37426758 C955.49880957 718.79333958 954.4971821 720.21244775 953.49560547 721.6315918 C951.02170505 725.13675274 948.54696634 728.64131515 946.0703125 732.14453125 C940.69494856 739.75009937 935.33744986 747.36776805 930 755 C924.17876317 763.32401819 918.331458 771.62918349 912.46777344 779.92333984 C909.97679014 783.44767516 907.48855097 786.97394701 905 790.5 C904.00001278 791.91667568 903.00001278 793.33334236 902 794.75 C901.505 795.45125 901.01 796.1525 900.5 796.875 C896.00000001 803.24999999 896.00000001 803.24999999 894.50048828 805.37426758 C893.49880957 806.79333958 892.4971821 808.21244775 891.49560547 809.6315918 C889.02170505 813.13675274 886.54696634 816.64131515 884.0703125 820.14453125 C878.69494856 827.75009937 873.33744986 835.36776805 868 843 C862.17876317 851.32401819 856.331458 859.62918349 850.46777344 867.92333984 C847.97679014 871.44767516 845.48855097 874.97394701 843 878.5 C842.00001278 879.91667568 841.00001278 881.33334236 840 882.75 C839.505 883.45125 839.01 884.1525 838.5 884.875 C834 891.25 834 891.25 832.50048828 893.37426758 C831.49880957 894.79333958 830.4971821 896.21244775 829.49560547 897.6315918 C827.02170505 901.13675274 824.54696634 904.64131515 822.0703125 908.14453125 C816.69494856 915.75009937 811.33744986 923.36776805 806 931 C801.63753048 937.23806877 797.26618391 943.46960671 792.875 949.6875 C792.38990967 950.37497314 791.90481934 951.06244629 791.4050293 951.77075195 C788.912466 955.30108639 786.4125058 958.82590459 783.90234375 962.34375 C779.29571888 968.81261204 774.74385126 975.28603441 770.5 982 C765.8108786 989.41700928 760.73321955 996.53934769 755.64306641 1003.68457031 C752.74063706 1007.77470997 749.87207902 1011.88852086 747 1016 C741.17924684 1024.32435432 735.33145606 1032.62918623 729.46777344 1040.92333984 C726.97679016 1044.44767513 724.48851935 1047.97392472 722 1051.5 C719.02473548 1055.71576254 716.04900208 1059.93118778 713.0703125 1064.14453125 C707.69494856 1071.75009937 702.33744986 1079.36776805 697 1087 C690.2101893 1096.70902049 683.3808842 1106.38968654 676.54101562 1116.06347656 C670.67444305 1124.36205286 664.82426018 1132.67165861 659 1141 C652.2101893 1150.70902049 645.3808842 1160.38968654 638.54101562 1170.06347656 C632.67444305 1178.36205286 626.82426018 1186.67165861 621 1195 C614.2101893 1204.70902049 607.3808842 1214.38968654 600.54101562 1224.06347656 C594.67444305 1232.36205286 588.82426018 1240.67165861 583 1249 C576.2101893 1258.70902049 569.3808842 1268.38968654 562.54101562 1278.06347656 C556.67444305 1286.36205286 550.82426018 1294.67165861 545 1303 C538.2101893 1312.70902049 531.3808842 1322.38968654 524.54101562 1332.06347656 C518.67444305 1340.36205286 512.82426018 1348.67165861 507 1357 C501.17876317 1365.32401819 495.331458 1373.62918349 489.46777344 1381.92333984 C486.97679016 1385.44767513 484.48851935 1388.97392472 482 1392.5 C479.02473548 1396.71576254 476.04900208 1400.93118778 473.0703125 1405.14453125 C467.69494856 1412.75009937 462.33744986 1420.36776805 457 1428 C450.2101893 1437.70902049 443.3808842 1447.38968654 436.54101562 1457.06347656 C430.67444305 1465.36205286 424.82426018 1473.67165861 419 1482 C412.2101893 1491.70902049 405.3808842 1501.38968654 398.54101562 1511.06347656 C392.67444305 1519.36205286 386.82426018 1527.67165861 381 1536 C374.2101893 1545.70902049 367.3808842 1555.38968654 360.54101562 1565.06347656 C354.67444305 1573.36205286 348.82426018 1581.67165861 343 1590 C337.17876317 1598.32401819 331.331458 1606.62918349 325.46777344 1614.92333984 C322.97679016 1618.44767513 320.48851935 1621.97392472 318 1625.5 C315.02473548 1629.71576254 312.04900208 1633.93118778 309.0703125 1638.14453125 C303.69494856 1645.75009937 298.33744986 1653.36776805 293 1661 C287.17876317 1669.32401819 281.331458 1677.62918349 275.46777344 1685.92333984 C272.97679016 1689.44767513 270.48851935 1692.97392472 268 1696.5 C265.02473548 1700.71576254 262.04900208 1704.93118778 259.0703125 1709.14453125 C253.69494856 1716.75009937 248.33744986 1724.36776805 243 1732 C236.2101893 1741.70902049 229.3808842 1751.38968654 222.54101562 1761.06347656 C221.06864312 1763.14622513 219.59668796 1765.22926767 218.125 1767.3125 C217.63789551 1768.00190674 217.15079102 1768.69131348 216.64892578 1769.40161133 C212.66427769 1775.04663752 208.70648396 1780.71021425 204.75 1786.375 C200.50412917 1792.45297356 196.21524687 1798.48912112 191.83203125 1804.46875 C189.02619028 1808.34547697 186.32109402 1812.29024138 183.60546875 1816.23046875 C175.66864912 1827.73432813 167.60782194 1839.15337342 159.53979492 1850.56542969 C155.67705882 1856.03237267 151.83591492 1861.51421231 148 1867 C141.21025056 1876.70906304 134.38088394 1886.3896869 127.54101562 1896.06347656 C121.67444305 1904.36205286 115.82426018 1912.67165861 110 1921 C104.17876317 1929.32401819 98.331458 1937.62918349 92.46777344 1945.92333984 C89.97679016 1949.44767513 87.48851935 1952.97392472 85 1956.5 C82.02473548 1960.71576254 79.04900208 1964.93118778 76.0703125 1969.14453125 C70.09445622 1977.59973215 64.14464861 1986.07268857 58.21142578 1994.55786133 C54.00396642 2000.57257099 49.77650817 2006.57279994 45.5390625 2012.56640625 C41.67663516 2018.03306928 37.83568189 2023.51454557 34 2029 C28.67500126 2036.61452967 23.33148386 2044.21554526 17.96484375 2051.80078125 C15.86442242 2054.77092478 13.77521359 2057.74864692 11.69140625 2060.73046875 C10.87470459 2061.89606323 10.87470459 2061.89606323 10.04150391 2063.08520508 C8.99842245 2064.57425545 7.95760597 2066.0648959 6.91943359 2067.55737305 C6.44973145 2068.22679932 5.9800293 2068.89622559 5.49609375 2069.5859375 C5.08544678 2070.1742334 4.6747998 2070.7625293 4.25170898 2071.36865234 C3 2073 3 2073 0 2076 C0 1390.92 0 705.84 0 0 Z " fill="#FEFEFE" transform="translate(0,0)"/>
</svg>
